<mxfile host="app.diagrams.net" modified="2024-05-04T00:15:43.668Z" agent="Mozilla/5.0 (Windows NT 10.0; Win64; x64; rv:109.0) Gecko/20100101 Firefox/115.0" etag="3SZeT9fQM8jifRJ7lKIs" version="24.3.1" type="device">
  <diagram name="Page-0" id="Page-0">
    <mxGraphModel dx="7285" dy="1375" grid="1" gridSize="10" guides="1" tooltips="1" connect="1" arrows="1" fold="1" page="1" pageScale="1" pageWidth="2339" pageHeight="3300" math="0" shadow="0">
      <root>
        <mxCell id="0" />
        <mxCell id="1" parent="0" />
        <mxCell id="Y4brpUqyJMxe7sHr3JE1-9" style="edgeStyle=orthogonalEdgeStyle;rounded=0;orthogonalLoop=1;jettySize=auto;html=1;endArrow=oval;endFill=0;" parent="1" edge="1">
          <mxGeometry relative="1" as="geometry">
            <mxPoint x="-3370" y="1698" as="targetPoint" />
            <mxPoint x="-3420" y="1698.0232558139537" as="sourcePoint" />
          </mxGeometry>
        </mxCell>
        <mxCell id="Y4brpUqyJMxe7sHr3JE1-7" value="&lt;font style=&quot;font-size: 17px;&quot;&gt;Abbonamento&lt;/font&gt;" style="rounded=0;whiteSpace=wrap;html=1;" parent="1" vertex="1">
          <mxGeometry x="-3560" y="1674" width="140" height="70" as="geometry" />
        </mxCell>
        <mxCell id="Y4brpUqyJMxe7sHr3JE1-10" value="&lt;font style=&quot;font-size: 7px;&quot;&gt;Utente&lt;/font&gt;" style="text;html=1;align=center;verticalAlign=middle;resizable=0;points=[];autosize=1;strokeColor=none;fillColor=none;" parent="1" vertex="1">
          <mxGeometry x="-3369" y="1681" width="40" height="30" as="geometry" />
        </mxCell>
        <mxCell id="Y4brpUqyJMxe7sHr3JE1-11" style="edgeStyle=orthogonalEdgeStyle;rounded=0;orthogonalLoop=1;jettySize=auto;html=1;endArrow=oval;endFill=1;" parent="1" edge="1">
          <mxGeometry relative="1" as="geometry">
            <mxPoint x="-3370" y="1728" as="targetPoint" />
            <mxPoint x="-3420" y="1728.0232558139537" as="sourcePoint" />
          </mxGeometry>
        </mxCell>
        <mxCell id="Y4brpUqyJMxe7sHr3JE1-12" value="&lt;font style=&quot;font-size: 7px;&quot;&gt;ID&lt;/font&gt;" style="text;html=1;align=center;verticalAlign=middle;resizable=0;points=[];autosize=1;strokeColor=none;fillColor=none;" parent="1" vertex="1">
          <mxGeometry x="-3370" y="1710" width="30" height="30" as="geometry" />
        </mxCell>
        <mxCell id="Y4brpUqyJMxe7sHr3JE1-15" style="edgeStyle=orthogonalEdgeStyle;rounded=0;orthogonalLoop=1;jettySize=auto;html=1;entryX=0.5;entryY=0;entryDx=0;entryDy=0;endArrow=none;endFill=0;" parent="1" source="Y4brpUqyJMxe7sHr3JE1-14" target="Y4brpUqyJMxe7sHr3JE1-7" edge="1">
          <mxGeometry relative="1" as="geometry" />
        </mxCell>
        <mxCell id="Y4brpUqyJMxe7sHr3JE1-14" value="Sottoscrive" style="rhombus;whiteSpace=wrap;html=1;" parent="1" vertex="1">
          <mxGeometry x="-3540" y="1551" width="100" height="80" as="geometry" />
        </mxCell>
        <mxCell id="Y4brpUqyJMxe7sHr3JE1-16" value="(1,1)" style="text;html=1;align=center;verticalAlign=middle;resizable=0;points=[];autosize=1;strokeColor=none;fillColor=none;" parent="1" vertex="1">
          <mxGeometry x="-3495" y="1638" width="50" height="30" as="geometry" />
        </mxCell>
        <mxCell id="Y4brpUqyJMxe7sHr3JE1-170" style="edgeStyle=orthogonalEdgeStyle;rounded=0;orthogonalLoop=1;jettySize=auto;html=1;entryX=0.5;entryY=1;entryDx=0;entryDy=0;" parent="1" source="Y4brpUqyJMxe7sHr3JE1-18" target="Y4brpUqyJMxe7sHr3JE1-28" edge="1">
          <mxGeometry relative="1" as="geometry">
            <Array as="points">
              <mxPoint x="-3490" y="1390" />
              <mxPoint x="-3370" y="1390" />
            </Array>
            <mxPoint x="-3370" y="1370" as="targetPoint" />
          </mxGeometry>
        </mxCell>
        <mxCell id="Y4brpUqyJMxe7sHr3JE1-18" value="&lt;font style=&quot;font-size: 17px;&quot;&gt;Abbonato&lt;/font&gt;" style="rounded=0;whiteSpace=wrap;html=1;" parent="1" vertex="1">
          <mxGeometry x="-3560" y="1446" width="140" height="70" as="geometry" />
        </mxCell>
        <mxCell id="Y4brpUqyJMxe7sHr3JE1-19" value="(1,1)" style="text;html=1;align=center;verticalAlign=middle;resizable=0;points=[];autosize=1;strokeColor=none;fillColor=none;" parent="1" vertex="1">
          <mxGeometry x="-3495" y="1516" width="50" height="30" as="geometry" />
        </mxCell>
        <mxCell id="Y4brpUqyJMxe7sHr3JE1-26" style="edgeStyle=orthogonalEdgeStyle;rounded=0;orthogonalLoop=1;jettySize=auto;html=1;entryX=0.5;entryY=1;entryDx=0;entryDy=0;" parent="1" source="Y4brpUqyJMxe7sHr3JE1-20" target="Y4brpUqyJMxe7sHr3JE1-28" edge="1">
          <mxGeometry relative="1" as="geometry">
            <mxPoint x="-3370" y="1370" as="targetPoint" />
            <Array as="points">
              <mxPoint x="-3240" y="1390" />
              <mxPoint x="-3370" y="1390" />
            </Array>
          </mxGeometry>
        </mxCell>
        <mxCell id="Y4brpUqyJMxe7sHr3JE1-20" value="&lt;font style=&quot;font-size: 17px;&quot;&gt;Amministratore&lt;/font&gt;" style="rounded=0;whiteSpace=wrap;html=1;" parent="1" vertex="1">
          <mxGeometry x="-3310" y="1445.62" width="140" height="70" as="geometry" />
        </mxCell>
        <mxCell id="Y4brpUqyJMxe7sHr3JE1-27" value="(t,e)" style="text;html=1;align=center;verticalAlign=middle;resizable=0;points=[];autosize=1;strokeColor=none;fillColor=none;" parent="1" vertex="1">
          <mxGeometry x="-3369" y="1270" width="40" height="30" as="geometry" />
        </mxCell>
        <mxCell id="Y4brpUqyJMxe7sHr3JE1-58" style="edgeStyle=orthogonalEdgeStyle;rounded=0;orthogonalLoop=1;jettySize=auto;html=1;endArrow=oval;endFill=0;" parent="1" edge="1">
          <mxGeometry relative="1" as="geometry">
            <mxPoint x="-3430" y="1140" as="targetPoint" />
            <mxPoint x="-3430" y="1190" as="sourcePoint" />
          </mxGeometry>
        </mxCell>
        <mxCell id="Y4brpUqyJMxe7sHr3JE1-28" value="&lt;font style=&quot;font-size: 17px;&quot;&gt;Utente&lt;/font&gt;" style="rounded=0;whiteSpace=wrap;html=1;" parent="1" vertex="1">
          <mxGeometry x="-3440" y="1193" width="140" height="70" as="geometry" />
        </mxCell>
        <mxCell id="Y4brpUqyJMxe7sHr3JE1-31" style="edgeStyle=orthogonalEdgeStyle;rounded=0;orthogonalLoop=1;jettySize=auto;html=1;entryX=0.097;entryY=0.04;entryDx=0;entryDy=0;entryPerimeter=0;endArrow=none;endFill=0;" parent="1" source="Y4brpUqyJMxe7sHr3JE1-14" target="Y4brpUqyJMxe7sHr3JE1-19" edge="1">
          <mxGeometry relative="1" as="geometry" />
        </mxCell>
        <mxCell id="Y4brpUqyJMxe7sHr3JE1-171" style="edgeStyle=orthogonalEdgeStyle;rounded=0;orthogonalLoop=1;jettySize=auto;html=1;entryX=0;entryY=0.5;entryDx=0;entryDy=0;endArrow=none;endFill=0;" parent="1" source="Y4brpUqyJMxe7sHr3JE1-33" target="Y4brpUqyJMxe7sHr3JE1-18" edge="1">
          <mxGeometry relative="1" as="geometry">
            <Array as="points">
              <mxPoint x="-3620" y="1605" />
              <mxPoint x="-3620" y="1481" />
            </Array>
          </mxGeometry>
        </mxCell>
        <mxCell id="Y4brpUqyJMxe7sHr3JE1-33" value="Accede" style="rhombus;whiteSpace=wrap;html=1;" parent="1" vertex="1">
          <mxGeometry x="-3880" y="1565" width="80" height="80" as="geometry" />
        </mxCell>
        <mxCell id="Y4brpUqyJMxe7sHr3JE1-162" style="edgeStyle=orthogonalEdgeStyle;rounded=0;orthogonalLoop=1;jettySize=auto;html=1;entryX=1;entryY=0.5;entryDx=0;entryDy=0;endArrow=none;endFill=0;" parent="1" source="Y4brpUqyJMxe7sHr3JE1-34" target="Y4brpUqyJMxe7sHr3JE1-161" edge="1">
          <mxGeometry relative="1" as="geometry" />
        </mxCell>
        <mxCell id="Y4brpUqyJMxe7sHr3JE1-172" style="edgeStyle=orthogonalEdgeStyle;rounded=0;orthogonalLoop=1;jettySize=auto;html=1;entryX=0;entryY=0.75;entryDx=0;entryDy=0;endArrow=none;endFill=0;" parent="1" source="Y4brpUqyJMxe7sHr3JE1-34" target="Y4brpUqyJMxe7sHr3JE1-18" edge="1">
          <mxGeometry relative="1" as="geometry">
            <Array as="points">
              <mxPoint x="-3600" y="1720" />
              <mxPoint x="-3600" y="1499" />
            </Array>
          </mxGeometry>
        </mxCell>
        <mxCell id="Y4brpUqyJMxe7sHr3JE1-34" value="Vede" style="rhombus;whiteSpace=wrap;html=1;" parent="1" vertex="1">
          <mxGeometry x="-3880" y="1680" width="80" height="80" as="geometry" />
        </mxCell>
        <mxCell id="Y4brpUqyJMxe7sHr3JE1-40" style="edgeStyle=orthogonalEdgeStyle;rounded=0;orthogonalLoop=1;jettySize=auto;html=1;entryX=0.5;entryY=0;entryDx=0;entryDy=0;endArrow=none;endFill=0;" parent="1" source="Y4brpUqyJMxe7sHr3JE1-39" target="Y4brpUqyJMxe7sHr3JE1-33" edge="1">
          <mxGeometry relative="1" as="geometry" />
        </mxCell>
        <mxCell id="Y4brpUqyJMxe7sHr3JE1-105" style="edgeStyle=orthogonalEdgeStyle;rounded=0;orthogonalLoop=1;jettySize=auto;html=1;entryX=0.5;entryY=1;entryDx=0;entryDy=0;endArrow=none;endFill=0;" parent="1" source="Y4brpUqyJMxe7sHr3JE1-39" target="Y4brpUqyJMxe7sHr3JE1-103" edge="1">
          <mxGeometry relative="1" as="geometry">
            <mxPoint x="-3840" y="1050" as="targetPoint" />
          </mxGeometry>
        </mxCell>
        <mxCell id="Y4brpUqyJMxe7sHr3JE1-107" style="edgeStyle=orthogonalEdgeStyle;rounded=0;orthogonalLoop=1;jettySize=auto;html=1;endArrow=oval;endFill=0;" parent="1" source="Y4brpUqyJMxe7sHr3JE1-39" edge="1">
          <mxGeometry relative="1" as="geometry">
            <mxPoint x="-3720" y="1485" as="targetPoint" />
          </mxGeometry>
        </mxCell>
        <mxCell id="Y4brpUqyJMxe7sHr3JE1-39" value="&lt;font style=&quot;font-size: 17px;&quot;&gt;Album&lt;/font&gt;" style="rounded=0;whiteSpace=wrap;html=1;" parent="1" vertex="1">
          <mxGeometry x="-3910" y="1450" width="140" height="70" as="geometry" />
        </mxCell>
        <mxCell id="Y4brpUqyJMxe7sHr3JE1-41" value="(0,n)" style="text;html=1;align=center;verticalAlign=middle;resizable=0;points=[];autosize=1;strokeColor=none;fillColor=none;" parent="1" vertex="1">
          <mxGeometry x="-3848" y="1516" width="50" height="30" as="geometry" />
        </mxCell>
        <mxCell id="Y4brpUqyJMxe7sHr3JE1-46" style="edgeStyle=orthogonalEdgeStyle;rounded=0;orthogonalLoop=1;jettySize=auto;html=1;endArrow=none;endFill=0;" parent="1" source="Y4brpUqyJMxe7sHr3JE1-42" target="Y4brpUqyJMxe7sHr3JE1-45" edge="1">
          <mxGeometry relative="1" as="geometry" />
        </mxCell>
        <mxCell id="Y4brpUqyJMxe7sHr3JE1-50" style="edgeStyle=orthogonalEdgeStyle;rounded=0;orthogonalLoop=1;jettySize=auto;html=1;endArrow=oval;endFill=0;" parent="1" edge="1">
          <mxGeometry relative="1" as="geometry">
            <mxPoint x="-4254" y="1400" as="targetPoint" />
            <mxPoint x="-4254" y="1450" as="sourcePoint" />
          </mxGeometry>
        </mxCell>
        <mxCell id="Y4brpUqyJMxe7sHr3JE1-113" style="edgeStyle=orthogonalEdgeStyle;rounded=0;orthogonalLoop=1;jettySize=auto;html=1;entryX=0;entryY=0.5;entryDx=0;entryDy=0;endArrow=none;endFill=0;" parent="1" source="Y4brpUqyJMxe7sHr3JE1-42" target="Y4brpUqyJMxe7sHr3JE1-110" edge="1">
          <mxGeometry relative="1" as="geometry">
            <Array as="points">
              <mxPoint x="-4210" y="1225" />
            </Array>
          </mxGeometry>
        </mxCell>
        <mxCell id="Y4brpUqyJMxe7sHr3JE1-155" style="edgeStyle=orthogonalEdgeStyle;rounded=0;orthogonalLoop=1;jettySize=auto;html=1;exitX=0.25;exitY=0;exitDx=0;exitDy=0;entryX=0;entryY=0;entryDx=0;entryDy=0;endArrow=none;endFill=0;" parent="1" source="Y4brpUqyJMxe7sHr3JE1-42" target="Y4brpUqyJMxe7sHr3JE1-151" edge="1">
          <mxGeometry relative="1" as="geometry">
            <Array as="points">
              <mxPoint x="-4239" y="1060" />
              <mxPoint x="-3087" y="1060" />
            </Array>
          </mxGeometry>
        </mxCell>
        <mxCell id="Y4brpUqyJMxe7sHr3JE1-42" value="&lt;font style=&quot;font-size: 17px;&quot;&gt;Brano&lt;/font&gt;" style="rounded=0;whiteSpace=wrap;html=1;" parent="1" vertex="1">
          <mxGeometry x="-4274" y="1450" width="140" height="70" as="geometry" />
        </mxCell>
        <mxCell id="Y4brpUqyJMxe7sHr3JE1-106" style="edgeStyle=orthogonalEdgeStyle;rounded=0;orthogonalLoop=1;jettySize=auto;html=1;entryX=0;entryY=0.5;entryDx=0;entryDy=0;endArrow=none;endFill=0;" parent="1" source="Y4brpUqyJMxe7sHr3JE1-45" target="Y4brpUqyJMxe7sHr3JE1-39" edge="1">
          <mxGeometry relative="1" as="geometry" />
        </mxCell>
        <mxCell id="Y4brpUqyJMxe7sHr3JE1-45" value="Compone" style="rhombus;whiteSpace=wrap;html=1;" parent="1" vertex="1">
          <mxGeometry x="-4060" y="1445.6200000000001" width="78.75" height="78.75" as="geometry" />
        </mxCell>
        <mxCell id="Y4brpUqyJMxe7sHr3JE1-48" value="(0,n)" style="text;html=1;align=center;verticalAlign=middle;resizable=0;points=[];autosize=1;strokeColor=none;fillColor=none;" parent="1" vertex="1">
          <mxGeometry x="-3954" y="1480" width="50" height="30" as="geometry" />
        </mxCell>
        <mxCell id="Y4brpUqyJMxe7sHr3JE1-49" value="(1,1)" style="text;html=1;align=center;verticalAlign=middle;resizable=0;points=[];autosize=1;strokeColor=none;fillColor=none;" parent="1" vertex="1">
          <mxGeometry x="-4141" y="1480" width="50" height="30" as="geometry" />
        </mxCell>
        <mxCell id="Y4brpUqyJMxe7sHr3JE1-51" value="&lt;font style=&quot;font-size: 7px;&quot;&gt;Genere&lt;/font&gt;" style="text;html=1;align=center;verticalAlign=middle;resizable=0;points=[];autosize=1;strokeColor=none;fillColor=none;" parent="1" vertex="1">
          <mxGeometry x="-4280" y="1371" width="50" height="30" as="geometry" />
        </mxCell>
        <mxCell id="Y4brpUqyJMxe7sHr3JE1-52" style="edgeStyle=orthogonalEdgeStyle;rounded=0;orthogonalLoop=1;jettySize=auto;html=1;endArrow=oval;endFill=0;" parent="1" edge="1">
          <mxGeometry relative="1" as="geometry">
            <mxPoint x="-4144" y="1400" as="targetPoint" />
            <mxPoint x="-4144" y="1450" as="sourcePoint" />
          </mxGeometry>
        </mxCell>
        <mxCell id="Y4brpUqyJMxe7sHr3JE1-53" style="edgeStyle=orthogonalEdgeStyle;rounded=0;orthogonalLoop=1;jettySize=auto;html=1;endArrow=oval;endFill=0;" parent="1" edge="1">
          <mxGeometry relative="1" as="geometry">
            <mxPoint x="-4172" y="1400" as="targetPoint" />
            <mxPoint x="-4172" y="1450" as="sourcePoint" />
          </mxGeometry>
        </mxCell>
        <mxCell id="Y4brpUqyJMxe7sHr3JE1-54" value="&lt;font style=&quot;font-size: 7px;&quot;&gt;Durata&lt;/font&gt;" style="text;html=1;align=center;verticalAlign=middle;resizable=0;points=[];autosize=1;strokeColor=none;fillColor=none;" parent="1" vertex="1">
          <mxGeometry x="-4193" y="1370" width="40" height="30" as="geometry" />
        </mxCell>
        <mxCell id="Y4brpUqyJMxe7sHr3JE1-55" value="&lt;font style=&quot;font-size: 7px;&quot;&gt;Nome&lt;/font&gt;" style="text;html=1;align=center;verticalAlign=middle;resizable=0;points=[];autosize=1;strokeColor=none;fillColor=none;" parent="1" vertex="1">
          <mxGeometry x="-4164" y="1370" width="40" height="30" as="geometry" />
        </mxCell>
        <mxCell id="Y4brpUqyJMxe7sHr3JE1-73" style="edgeStyle=orthogonalEdgeStyle;rounded=0;orthogonalLoop=1;jettySize=auto;html=1;entryX=0.5;entryY=0;entryDx=0;entryDy=0;endArrow=none;endFill=0;" parent="1" source="Y4brpUqyJMxe7sHr3JE1-57" target="Y4brpUqyJMxe7sHr3JE1-28" edge="1">
          <mxGeometry relative="1" as="geometry" />
        </mxCell>
        <mxCell id="Y4brpUqyJMxe7sHr3JE1-57" value="Fa" style="rhombus;whiteSpace=wrap;html=1;" parent="1" vertex="1">
          <mxGeometry x="-3390" y="970" width="40" height="40" as="geometry" />
        </mxCell>
        <mxCell id="Y4brpUqyJMxe7sHr3JE1-59" value="&lt;font style=&quot;font-size: 7px;&quot;&gt;Nome&lt;/font&gt;" style="text;html=1;align=center;verticalAlign=middle;resizable=0;points=[];autosize=1;strokeColor=none;fillColor=none;" parent="1" vertex="1">
          <mxGeometry x="-3451" y="1110" width="40" height="30" as="geometry" />
        </mxCell>
        <mxCell id="Y4brpUqyJMxe7sHr3JE1-60" style="edgeStyle=orthogonalEdgeStyle;rounded=0;orthogonalLoop=1;jettySize=auto;html=1;endArrow=oval;endFill=0;" parent="1" edge="1">
          <mxGeometry relative="1" as="geometry">
            <mxPoint x="-3400.11" y="1140" as="targetPoint" />
            <mxPoint x="-3400.11" y="1190" as="sourcePoint" />
          </mxGeometry>
        </mxCell>
        <mxCell id="Y4brpUqyJMxe7sHr3JE1-61" value="&lt;font style=&quot;font-size: 7px;&quot;&gt;Cognome&lt;/font&gt;" style="text;html=1;align=center;verticalAlign=middle;resizable=0;points=[];autosize=1;strokeColor=none;fillColor=none;" parent="1" vertex="1">
          <mxGeometry x="-3424" y="1110" width="50" height="30" as="geometry" />
        </mxCell>
        <mxCell id="Y4brpUqyJMxe7sHr3JE1-62" style="edgeStyle=orthogonalEdgeStyle;rounded=0;orthogonalLoop=1;jettySize=auto;html=1;endArrow=oval;endFill=0;" parent="1" edge="1">
          <mxGeometry relative="1" as="geometry">
            <mxPoint x="-3390" y="1160" as="targetPoint" />
            <mxPoint x="-3440" y="1160" as="sourcePoint" />
          </mxGeometry>
        </mxCell>
        <mxCell id="Y4brpUqyJMxe7sHr3JE1-63" style="edgeStyle=orthogonalEdgeStyle;rounded=0;orthogonalLoop=1;jettySize=auto;html=1;endArrow=oval;endFill=0;" parent="1" edge="1">
          <mxGeometry relative="1" as="geometry">
            <mxPoint x="-3330" y="1140" as="targetPoint" />
            <mxPoint x="-3330" y="1190" as="sourcePoint" />
          </mxGeometry>
        </mxCell>
        <mxCell id="Y4brpUqyJMxe7sHr3JE1-64" value="&lt;font style=&quot;font-size: 7px;&quot;&gt;Stato&lt;/font&gt;" style="text;html=1;align=center;verticalAlign=middle;resizable=0;points=[];autosize=1;strokeColor=none;fillColor=none;" parent="1" vertex="1">
          <mxGeometry x="-3350" y="1110" width="40" height="30" as="geometry" />
        </mxCell>
        <mxCell id="Y4brpUqyJMxe7sHr3JE1-65" style="edgeStyle=orthogonalEdgeStyle;rounded=0;orthogonalLoop=1;jettySize=auto;html=1;endArrow=oval;endFill=0;" parent="1" edge="1">
          <mxGeometry relative="1" as="geometry">
            <mxPoint x="-3306" y="1140" as="targetPoint" />
            <mxPoint x="-3306" y="1190" as="sourcePoint" />
          </mxGeometry>
        </mxCell>
        <mxCell id="Y4brpUqyJMxe7sHr3JE1-66" value="&lt;font style=&quot;font-size: 7px;&quot;&gt;Città&lt;/font&gt;" style="text;html=1;align=center;verticalAlign=middle;resizable=0;points=[];autosize=1;strokeColor=none;fillColor=none;" parent="1" vertex="1">
          <mxGeometry x="-3326" y="1110" width="40" height="30" as="geometry" />
        </mxCell>
        <mxCell id="Y4brpUqyJMxe7sHr3JE1-67" style="edgeStyle=orthogonalEdgeStyle;rounded=0;orthogonalLoop=1;jettySize=auto;html=1;endArrow=oval;endFill=0;" parent="1" edge="1">
          <mxGeometry relative="1" as="geometry">
            <mxPoint x="-3480" y="1210" as="targetPoint" />
            <mxPoint x="-3440.23" y="1210" as="sourcePoint" />
          </mxGeometry>
        </mxCell>
        <mxCell id="Y4brpUqyJMxe7sHr3JE1-68" value="&lt;font style=&quot;font-size: 7px;&quot;&gt;Età&lt;/font&gt;" style="text;html=1;align=center;verticalAlign=middle;resizable=0;points=[];autosize=1;strokeColor=none;fillColor=none;" parent="1" vertex="1">
          <mxGeometry x="-3511" y="1192" width="30" height="30" as="geometry" />
        </mxCell>
        <mxCell id="Y4brpUqyJMxe7sHr3JE1-69" style="edgeStyle=orthogonalEdgeStyle;rounded=0;orthogonalLoop=1;jettySize=auto;html=1;endArrow=oval;endFill=0;" parent="1" edge="1">
          <mxGeometry relative="1" as="geometry">
            <mxPoint x="-3293" y="1160" as="targetPoint" />
            <mxPoint x="-3343" y="1160" as="sourcePoint" />
          </mxGeometry>
        </mxCell>
        <mxCell id="Y4brpUqyJMxe7sHr3JE1-70" style="edgeStyle=orthogonalEdgeStyle;rounded=0;orthogonalLoop=1;jettySize=auto;html=1;endArrow=oval;endFill=1;" parent="1" edge="1">
          <mxGeometry relative="1" as="geometry">
            <mxPoint x="-3479.77" y="1240" as="targetPoint" />
            <mxPoint x="-3440" y="1240" as="sourcePoint" />
          </mxGeometry>
        </mxCell>
        <mxCell id="Y4brpUqyJMxe7sHr3JE1-71" value="&lt;font style=&quot;font-size: 7px;&quot;&gt;Username&lt;/font&gt;" style="text;html=1;align=center;verticalAlign=middle;resizable=0;points=[];autosize=1;strokeColor=none;fillColor=none;" parent="1" vertex="1">
          <mxGeometry x="-3537" y="1222" width="60" height="30" as="geometry" />
        </mxCell>
        <mxCell id="Y4brpUqyJMxe7sHr3JE1-74" value="(0,n)" style="text;html=1;align=center;verticalAlign=middle;resizable=0;points=[];autosize=1;strokeColor=none;fillColor=none;" parent="1" vertex="1">
          <mxGeometry x="-3377" y="1163" width="50" height="30" as="geometry" />
        </mxCell>
        <mxCell id="Y4brpUqyJMxe7sHr3JE1-79" style="edgeStyle=orthogonalEdgeStyle;rounded=0;orthogonalLoop=1;jettySize=auto;html=1;endArrow=none;endFill=0;entryX=0.5;entryY=0;entryDx=0;entryDy=0;" parent="1" source="Y4brpUqyJMxe7sHr3JE1-76" target="Y4brpUqyJMxe7sHr3JE1-57" edge="1">
          <mxGeometry relative="1" as="geometry">
            <mxPoint x="-3370" y="942" as="targetPoint" />
          </mxGeometry>
        </mxCell>
        <mxCell id="Y4brpUqyJMxe7sHr3JE1-81" style="edgeStyle=orthogonalEdgeStyle;rounded=0;orthogonalLoop=1;jettySize=auto;html=1;entryX=1;entryY=0.5;entryDx=0;entryDy=0;endArrow=none;endFill=0;" parent="1" source="Y4brpUqyJMxe7sHr3JE1-76" target="Y4brpUqyJMxe7sHr3JE1-80" edge="1">
          <mxGeometry relative="1" as="geometry" />
        </mxCell>
        <mxCell id="Y4brpUqyJMxe7sHr3JE1-85" style="edgeStyle=orthogonalEdgeStyle;rounded=0;orthogonalLoop=1;jettySize=auto;html=1;entryX=0;entryY=0.5;entryDx=0;entryDy=0;endArrow=none;endFill=0;" parent="1" source="Y4brpUqyJMxe7sHr3JE1-76" target="Y4brpUqyJMxe7sHr3JE1-82" edge="1">
          <mxGeometry relative="1" as="geometry" />
        </mxCell>
        <mxCell id="Y4brpUqyJMxe7sHr3JE1-219" style="edgeStyle=orthogonalEdgeStyle;rounded=0;orthogonalLoop=1;jettySize=auto;html=1;exitX=0.75;exitY=1;exitDx=0;exitDy=0;endArrow=none;endFill=0;" parent="1" edge="1">
          <mxGeometry relative="1" as="geometry">
            <mxPoint x="-3350" y="927" as="targetPoint" />
            <mxPoint x="-3335" y="909" as="sourcePoint" />
          </mxGeometry>
        </mxCell>
        <mxCell id="Y4brpUqyJMxe7sHr3JE1-228" style="edgeStyle=orthogonalEdgeStyle;rounded=0;orthogonalLoop=1;jettySize=auto;html=1;exitX=1;exitY=1;exitDx=0;exitDy=0;endArrow=none;endFill=0;" parent="1" edge="1">
          <mxGeometry relative="1" as="geometry">
            <mxPoint x="-3310" y="927" as="targetPoint" />
            <mxPoint x="-3300" y="909" as="sourcePoint" />
          </mxGeometry>
        </mxCell>
        <mxCell id="Y4brpUqyJMxe7sHr3JE1-76" value="&lt;font style=&quot;font-size: 17px;&quot;&gt;Ricerca&lt;/font&gt;" style="rounded=0;whiteSpace=wrap;html=1;" parent="1" vertex="1">
          <mxGeometry x="-3440" y="842" width="140" height="70" as="geometry" />
        </mxCell>
        <mxCell id="Y4brpUqyJMxe7sHr3JE1-78" value="(1,1)" style="text;html=1;align=center;verticalAlign=middle;resizable=0;points=[];autosize=1;strokeColor=none;fillColor=none;" parent="1" vertex="1">
          <mxGeometry x="-3377" y="940" width="50" height="30" as="geometry" />
        </mxCell>
        <mxCell id="Y4brpUqyJMxe7sHr3JE1-80" value="Su" style="rhombus;whiteSpace=wrap;html=1;" parent="1" vertex="1">
          <mxGeometry x="-3530" y="857" width="40" height="40" as="geometry" />
        </mxCell>
        <mxCell id="Y4brpUqyJMxe7sHr3JE1-92" style="edgeStyle=orthogonalEdgeStyle;rounded=0;orthogonalLoop=1;jettySize=auto;html=1;entryX=0;entryY=0.5;entryDx=0;entryDy=0;endArrow=none;endFill=0;" parent="1" source="Y4brpUqyJMxe7sHr3JE1-82" target="Y4brpUqyJMxe7sHr3JE1-91" edge="1">
          <mxGeometry relative="1" as="geometry" />
        </mxCell>
        <mxCell id="Y4brpUqyJMxe7sHr3JE1-82" value="Su" style="rhombus;whiteSpace=wrap;html=1;" parent="1" vertex="1">
          <mxGeometry x="-3240" y="857" width="40" height="40" as="geometry" />
        </mxCell>
        <mxCell id="Y4brpUqyJMxe7sHr3JE1-86" value="(1,1)" style="text;html=1;align=center;verticalAlign=middle;resizable=0;points=[];autosize=1;strokeColor=none;fillColor=none;" parent="1" vertex="1">
          <mxGeometry x="-3490" y="872" width="50" height="30" as="geometry" />
        </mxCell>
        <mxCell id="Y4brpUqyJMxe7sHr3JE1-87" value="(1,1)" style="text;html=1;align=center;verticalAlign=middle;resizable=0;points=[];autosize=1;strokeColor=none;fillColor=none;" parent="1" vertex="1">
          <mxGeometry x="-3300" y="872" width="50" height="30" as="geometry" />
        </mxCell>
        <mxCell id="Y4brpUqyJMxe7sHr3JE1-90" style="edgeStyle=orthogonalEdgeStyle;rounded=0;orthogonalLoop=1;jettySize=auto;html=1;entryX=0;entryY=0.5;entryDx=0;entryDy=0;endArrow=none;endFill=0;" parent="1" source="Y4brpUqyJMxe7sHr3JE1-88" target="Y4brpUqyJMxe7sHr3JE1-80" edge="1">
          <mxGeometry relative="1" as="geometry" />
        </mxCell>
        <mxCell id="Y4brpUqyJMxe7sHr3JE1-104" style="edgeStyle=orthogonalEdgeStyle;rounded=0;orthogonalLoop=1;jettySize=auto;html=1;entryX=1;entryY=0.5;entryDx=0;entryDy=0;endArrow=none;endFill=0;" parent="1" source="Y4brpUqyJMxe7sHr3JE1-88" target="Y4brpUqyJMxe7sHr3JE1-103" edge="1">
          <mxGeometry relative="1" as="geometry" />
        </mxCell>
        <mxCell id="Y4brpUqyJMxe7sHr3JE1-154" style="edgeStyle=orthogonalEdgeStyle;rounded=0;orthogonalLoop=1;jettySize=auto;html=1;entryX=0;entryY=0.5;entryDx=0;entryDy=0;endArrow=none;endFill=0;" parent="1" source="Y4brpUqyJMxe7sHr3JE1-88" target="Y4brpUqyJMxe7sHr3JE1-151" edge="1">
          <mxGeometry relative="1" as="geometry">
            <Array as="points">
              <mxPoint x="-3640" y="1085" />
            </Array>
          </mxGeometry>
        </mxCell>
        <mxCell id="Y4brpUqyJMxe7sHr3JE1-88" value="&lt;font style=&quot;font-size: 17px;&quot;&gt;Artista&lt;/font&gt;" style="rounded=0;whiteSpace=wrap;html=1;" parent="1" vertex="1">
          <mxGeometry x="-3710" y="842" width="140" height="70" as="geometry" />
        </mxCell>
        <mxCell id="Y4brpUqyJMxe7sHr3JE1-91" value="&lt;font style=&quot;font-size: 17px;&quot;&gt;Festival&lt;/font&gt;" style="rounded=0;whiteSpace=wrap;html=1;" parent="1" vertex="1">
          <mxGeometry x="-3140" y="842" width="140" height="70" as="geometry" />
        </mxCell>
        <mxCell id="Y4brpUqyJMxe7sHr3JE1-99" style="edgeStyle=orthogonalEdgeStyle;rounded=0;orthogonalLoop=1;jettySize=auto;html=1;endArrow=oval;endFill=0;" parent="1" edge="1">
          <mxGeometry relative="1" as="geometry">
            <mxPoint x="-3630" y="792" as="targetPoint" />
            <mxPoint x="-3629.9714285714285" y="842" as="sourcePoint" />
          </mxGeometry>
        </mxCell>
        <mxCell id="Y4brpUqyJMxe7sHr3JE1-100" value="&lt;font style=&quot;font-size: 7px;&quot;&gt;Genere&lt;/font&gt;" style="text;html=1;align=center;verticalAlign=middle;resizable=0;points=[];autosize=1;strokeColor=none;fillColor=none;" parent="1" vertex="1">
          <mxGeometry x="-3654" y="760" width="50" height="30" as="geometry" />
        </mxCell>
        <mxCell id="Y4brpUqyJMxe7sHr3JE1-101" style="edgeStyle=orthogonalEdgeStyle;rounded=0;orthogonalLoop=1;jettySize=auto;html=1;endArrow=oval;endFill=1;" parent="1" edge="1">
          <mxGeometry relative="1" as="geometry">
            <mxPoint x="-3590.17" y="792" as="targetPoint" />
            <mxPoint x="-3590.1414285714286" y="842" as="sourcePoint" />
          </mxGeometry>
        </mxCell>
        <mxCell id="Y4brpUqyJMxe7sHr3JE1-102" value="&lt;font style=&quot;font-size: 7px;&quot;&gt;Nome d&#39;arte&lt;/font&gt;" style="text;html=1;align=center;verticalAlign=middle;resizable=0;points=[];autosize=1;strokeColor=none;fillColor=none;" parent="1" vertex="1">
          <mxGeometry x="-3620" y="760" width="60" height="30" as="geometry" />
        </mxCell>
        <mxCell id="Y4brpUqyJMxe7sHr3JE1-103" value="Fa" style="rhombus;whiteSpace=wrap;html=1;" parent="1" vertex="1">
          <mxGeometry x="-3860" y="857" width="40" height="40" as="geometry" />
        </mxCell>
        <mxCell id="Y4brpUqyJMxe7sHr3JE1-108" value="&lt;font style=&quot;font-size: 7px;&quot;&gt;Nome&lt;/font&gt;" style="text;html=1;align=center;verticalAlign=middle;resizable=0;points=[];autosize=1;strokeColor=none;fillColor=none;" parent="1" vertex="1">
          <mxGeometry x="-3720" y="1468" width="40" height="30" as="geometry" />
        </mxCell>
        <mxCell id="Y4brpUqyJMxe7sHr3JE1-109" value="" style="endArrow=oval;html=1;rounded=0;endFill=1;" parent="1" edge="1">
          <mxGeometry width="50" height="50" relative="1" as="geometry">
            <mxPoint x="-3744" y="877" as="sourcePoint" />
            <mxPoint x="-3744" y="1497" as="targetPoint" />
          </mxGeometry>
        </mxCell>
        <mxCell id="Y4brpUqyJMxe7sHr3JE1-111" style="edgeStyle=orthogonalEdgeStyle;rounded=0;orthogonalLoop=1;jettySize=auto;html=1;entryX=0;entryY=0.5;entryDx=0;entryDy=0;endArrow=none;endFill=0;" parent="1" source="Y4brpUqyJMxe7sHr3JE1-110" target="Y4brpUqyJMxe7sHr3JE1-28" edge="1">
          <mxGeometry relative="1" as="geometry" />
        </mxCell>
        <mxCell id="Y4brpUqyJMxe7sHr3JE1-118" style="edgeStyle=orthogonalEdgeStyle;rounded=0;orthogonalLoop=1;jettySize=auto;html=1;endArrow=oval;endFill=0;" parent="1" source="Y4brpUqyJMxe7sHr3JE1-110" edge="1">
          <mxGeometry relative="1" as="geometry">
            <mxPoint x="-3636" y="1320" as="targetPoint" />
          </mxGeometry>
        </mxCell>
        <mxCell id="Y4brpUqyJMxe7sHr3JE1-110" value="Valuta" style="rhombus;whiteSpace=wrap;html=1;" parent="1" vertex="1">
          <mxGeometry x="-3685" y="1178" width="100" height="100" as="geometry" />
        </mxCell>
        <mxCell id="Y4brpUqyJMxe7sHr3JE1-114" value="(0,n)" style="text;html=1;align=center;verticalAlign=middle;resizable=0;points=[];autosize=1;strokeColor=none;fillColor=none;" parent="1" vertex="1">
          <mxGeometry x="-3580" y="1222" width="50" height="30" as="geometry" />
        </mxCell>
        <mxCell id="Y4brpUqyJMxe7sHr3JE1-115" value="(0,n)" style="text;html=1;align=center;verticalAlign=middle;resizable=0;points=[];autosize=1;strokeColor=none;fillColor=none;" parent="1" vertex="1">
          <mxGeometry x="-4217" y="1421" width="50" height="30" as="geometry" />
        </mxCell>
        <mxCell id="Y4brpUqyJMxe7sHr3JE1-119" value="&lt;font style=&quot;font-size: 7px;&quot;&gt;Voto&lt;/font&gt;" style="text;html=1;align=center;verticalAlign=middle;resizable=0;points=[];autosize=1;strokeColor=none;fillColor=none;" parent="1" vertex="1">
          <mxGeometry x="-3657" y="1316" width="40" height="30" as="geometry" />
        </mxCell>
        <mxCell id="Y4brpUqyJMxe7sHr3JE1-120" style="edgeStyle=orthogonalEdgeStyle;rounded=0;orthogonalLoop=1;jettySize=auto;html=1;endArrow=oval;endFill=0;" parent="1" edge="1">
          <mxGeometry relative="1" as="geometry">
            <mxPoint x="-3120" y="792" as="targetPoint" />
            <mxPoint x="-3119.9714285714285" y="842" as="sourcePoint" />
          </mxGeometry>
        </mxCell>
        <mxCell id="Y4brpUqyJMxe7sHr3JE1-121" value="&lt;font style=&quot;font-size: 7px;&quot;&gt;Località&lt;/font&gt;" style="text;html=1;align=center;verticalAlign=middle;resizable=0;points=[];autosize=1;strokeColor=none;fillColor=none;" parent="1" vertex="1">
          <mxGeometry x="-3146" y="762" width="50" height="30" as="geometry" />
        </mxCell>
        <mxCell id="Y4brpUqyJMxe7sHr3JE1-122" style="edgeStyle=orthogonalEdgeStyle;rounded=0;orthogonalLoop=1;jettySize=auto;html=1;endArrow=oval;endFill=0;" parent="1" edge="1">
          <mxGeometry relative="1" as="geometry">
            <mxPoint x="-3070.17" y="792" as="targetPoint" />
            <mxPoint x="-3070.1414285714286" y="842" as="sourcePoint" />
          </mxGeometry>
        </mxCell>
        <mxCell id="Y4brpUqyJMxe7sHr3JE1-123" value="&lt;font style=&quot;font-size: 7px;&quot;&gt;Conduttore&lt;/font&gt;" style="text;html=1;align=center;verticalAlign=middle;resizable=0;points=[];autosize=1;strokeColor=none;fillColor=none;" parent="1" vertex="1">
          <mxGeometry x="-3101" y="762" width="60" height="30" as="geometry" />
        </mxCell>
        <mxCell id="Y4brpUqyJMxe7sHr3JE1-124" value="(0,1)" style="text;html=1;align=center;verticalAlign=middle;resizable=0;points=[];autosize=1;strokeColor=none;fillColor=none;" parent="1" vertex="1">
          <mxGeometry x="-3184" y="872" width="50" height="30" as="geometry" />
        </mxCell>
        <mxCell id="Y4brpUqyJMxe7sHr3JE1-125" value="(0,n)" style="text;html=1;align=center;verticalAlign=middle;resizable=0;points=[];autosize=1;strokeColor=none;fillColor=none;" parent="1" vertex="1">
          <mxGeometry x="-3577" y="872" width="50" height="30" as="geometry" />
        </mxCell>
        <mxCell id="Y4brpUqyJMxe7sHr3JE1-126" style="edgeStyle=orthogonalEdgeStyle;rounded=0;orthogonalLoop=1;jettySize=auto;html=1;endArrow=oval;endFill=1;" parent="1" edge="1">
          <mxGeometry relative="1" as="geometry">
            <mxPoint x="-3020" y="792" as="targetPoint" />
            <mxPoint x="-3019.9714285714285" y="842" as="sourcePoint" />
          </mxGeometry>
        </mxCell>
        <mxCell id="Y4brpUqyJMxe7sHr3JE1-127" value="&lt;font style=&quot;font-size: 7px;&quot;&gt;ID&lt;/font&gt;" style="text;html=1;align=center;verticalAlign=middle;resizable=0;points=[];autosize=1;strokeColor=none;fillColor=none;" parent="1" vertex="1">
          <mxGeometry x="-3035" y="762" width="30" height="30" as="geometry" />
        </mxCell>
        <mxCell id="Y4brpUqyJMxe7sHr3JE1-129" style="edgeStyle=orthogonalEdgeStyle;rounded=0;orthogonalLoop=1;jettySize=auto;html=1;entryX=1;entryY=0.5;entryDx=0;entryDy=0;endArrow=none;endFill=0;" parent="1" source="Y4brpUqyJMxe7sHr3JE1-128" target="Y4brpUqyJMxe7sHr3JE1-91" edge="1">
          <mxGeometry relative="1" as="geometry" />
        </mxCell>
        <mxCell id="Y4brpUqyJMxe7sHr3JE1-133" style="edgeStyle=orthogonalEdgeStyle;rounded=0;orthogonalLoop=1;jettySize=auto;html=1;entryX=0.5;entryY=0;entryDx=0;entryDy=0;endArrow=none;endFill=0;" parent="1" source="Y4brpUqyJMxe7sHr3JE1-128" target="Y4brpUqyJMxe7sHr3JE1-132" edge="1">
          <mxGeometry relative="1" as="geometry" />
        </mxCell>
        <mxCell id="Y4brpUqyJMxe7sHr3JE1-128" value="Istanza di" style="rhombus;whiteSpace=wrap;html=1;" parent="1" vertex="1">
          <mxGeometry x="-2866" y="837" width="80" height="80" as="geometry" />
        </mxCell>
        <mxCell id="Y4brpUqyJMxe7sHr3JE1-130" value="(1,n)" style="text;html=1;align=center;verticalAlign=middle;resizable=0;points=[];autosize=1;strokeColor=none;fillColor=none;" parent="1" vertex="1">
          <mxGeometry x="-2906" y="872" width="50" height="30" as="geometry" />
        </mxCell>
        <mxCell id="Y4brpUqyJMxe7sHr3JE1-143" style="edgeStyle=orthogonalEdgeStyle;rounded=0;orthogonalLoop=1;jettySize=auto;html=1;endArrow=oval;endFill=0;" parent="1" source="Y4brpUqyJMxe7sHr3JE1-132" edge="1">
          <mxGeometry relative="1" as="geometry">
            <mxPoint x="-2930" y="987" as="targetPoint" />
          </mxGeometry>
        </mxCell>
        <mxCell id="Y4brpUqyJMxe7sHr3JE1-132" value="&lt;font style=&quot;font-size: 17px;&quot;&gt;Festival Passati&lt;/font&gt;" style="rounded=0;whiteSpace=wrap;html=1;" parent="1" vertex="1">
          <mxGeometry x="-2896" y="952" width="140" height="70" as="geometry" />
        </mxCell>
        <mxCell id="Y4brpUqyJMxe7sHr3JE1-135" value="&lt;font style=&quot;font-size: 7px;&quot;&gt;Anno&lt;/font&gt;" style="text;strokeColor=none;align=center;fillColor=none;html=1;verticalAlign=middle;whiteSpace=wrap;rounded=0;" parent="1" vertex="1">
          <mxGeometry x="-2975" y="970" width="60" height="30" as="geometry" />
        </mxCell>
        <mxCell id="Y4brpUqyJMxe7sHr3JE1-136" value="" style="endArrow=oval;html=1;rounded=0;endFill=1;" parent="1" edge="1">
          <mxGeometry width="50" height="50" relative="1" as="geometry">
            <mxPoint x="-2910" y="877" as="sourcePoint" />
            <mxPoint x="-2910" y="1012" as="targetPoint" />
          </mxGeometry>
        </mxCell>
        <mxCell id="Y4brpUqyJMxe7sHr3JE1-140" style="edgeStyle=orthogonalEdgeStyle;rounded=0;orthogonalLoop=1;jettySize=auto;html=1;entryX=1;entryY=0.5;entryDx=0;entryDy=0;endArrow=none;endFill=0;" parent="1" source="Y4brpUqyJMxe7sHr3JE1-137" target="Y4brpUqyJMxe7sHr3JE1-20" edge="1">
          <mxGeometry relative="1" as="geometry" />
        </mxCell>
        <mxCell id="Y4brpUqyJMxe7sHr3JE1-142" style="edgeStyle=orthogonalEdgeStyle;rounded=0;orthogonalLoop=1;jettySize=auto;html=1;entryX=0.5;entryY=1;entryDx=0;entryDy=0;endArrow=none;endFill=0;" parent="1" source="Y4brpUqyJMxe7sHr3JE1-137" target="Y4brpUqyJMxe7sHr3JE1-141" edge="1">
          <mxGeometry relative="1" as="geometry" />
        </mxCell>
        <mxCell id="Y4brpUqyJMxe7sHr3JE1-137" value="Gestisce" style="rhombus;whiteSpace=wrap;html=1;" parent="1" vertex="1">
          <mxGeometry x="-3105" y="1446" width="70" height="70" as="geometry" />
        </mxCell>
        <mxCell id="Y4brpUqyJMxe7sHr3JE1-138" value="(1,1)" style="text;html=1;align=center;verticalAlign=middle;resizable=0;points=[];autosize=1;strokeColor=none;fillColor=none;" parent="1" vertex="1">
          <mxGeometry x="-2826" y="922" width="50" height="30" as="geometry" />
        </mxCell>
        <mxCell id="Y4brpUqyJMxe7sHr3JE1-145" style="edgeStyle=orthogonalEdgeStyle;rounded=0;orthogonalLoop=1;jettySize=auto;html=1;endArrow=oval;endFill=0;" parent="1" edge="1">
          <mxGeometry relative="1" as="geometry">
            <mxPoint x="-3014" y="1240" as="targetPoint" />
            <mxPoint x="-3013.9999999999995" y="1300" as="sourcePoint" />
          </mxGeometry>
        </mxCell>
        <mxCell id="Y4brpUqyJMxe7sHr3JE1-149" style="edgeStyle=orthogonalEdgeStyle;rounded=0;orthogonalLoop=1;jettySize=auto;html=1;endArrow=oval;endFill=0;" parent="1" source="Y4brpUqyJMxe7sHr3JE1-141" edge="1">
          <mxGeometry relative="1" as="geometry">
            <mxPoint x="-3190" y="1335.0000000000002" as="targetPoint" />
          </mxGeometry>
        </mxCell>
        <mxCell id="Y4brpUqyJMxe7sHr3JE1-141" value="&lt;font style=&quot;font-size: 17px;&quot;&gt;Pagine&lt;/font&gt;" style="rounded=0;whiteSpace=wrap;html=1;" parent="1" vertex="1">
          <mxGeometry x="-3140" y="1300" width="140" height="70" as="geometry" />
        </mxCell>
        <mxCell id="Y4brpUqyJMxe7sHr3JE1-146" value="&lt;font style=&quot;font-size: 7px;&quot;&gt;Num.pagina festival&lt;br&gt;&lt;/font&gt;" style="text;html=1;align=center;verticalAlign=middle;resizable=0;points=[];autosize=1;strokeColor=none;fillColor=none;" parent="1" vertex="1">
          <mxGeometry x="-3060" y="1210" width="90" height="30" as="geometry" />
        </mxCell>
        <mxCell id="Y4brpUqyJMxe7sHr3JE1-150" value="&lt;font style=&quot;font-size: 7px;&quot;&gt;Num.pagina artista&lt;br&gt;&lt;/font&gt;" style="text;html=1;align=center;verticalAlign=middle;resizable=0;points=[];autosize=1;strokeColor=none;fillColor=none;" parent="1" vertex="1">
          <mxGeometry x="-3270" y="1318" width="80" height="30" as="geometry" />
        </mxCell>
        <mxCell id="Y4brpUqyJMxe7sHr3JE1-152" style="edgeStyle=orthogonalEdgeStyle;rounded=0;orthogonalLoop=1;jettySize=auto;html=1;entryX=0.5;entryY=1;entryDx=0;entryDy=0;endArrow=none;endFill=0;" parent="1" source="Y4brpUqyJMxe7sHr3JE1-151" target="Y4brpUqyJMxe7sHr3JE1-91" edge="1">
          <mxGeometry relative="1" as="geometry" />
        </mxCell>
        <mxCell id="Y4brpUqyJMxe7sHr3JE1-153" style="edgeStyle=orthogonalEdgeStyle;rounded=0;orthogonalLoop=1;jettySize=auto;html=1;entryX=0.5;entryY=0;entryDx=0;entryDy=0;endArrow=none;endFill=0;" parent="1" source="Y4brpUqyJMxe7sHr3JE1-151" target="Y4brpUqyJMxe7sHr3JE1-141" edge="1">
          <mxGeometry relative="1" as="geometry" />
        </mxCell>
        <mxCell id="Y4brpUqyJMxe7sHr3JE1-151" value="Contiene" style="rhombus;whiteSpace=wrap;html=1;" parent="1" vertex="1">
          <mxGeometry x="-3105" y="1050" width="70" height="70" as="geometry" />
        </mxCell>
        <mxCell id="Y4brpUqyJMxe7sHr3JE1-156" value="" style="endArrow=oval;html=1;rounded=0;endFill=1;" parent="1" edge="1">
          <mxGeometry width="50" height="50" relative="1" as="geometry">
            <mxPoint x="-3152.43" y="1060" as="sourcePoint" />
            <mxPoint x="-3152.43" y="1370" as="targetPoint" />
          </mxGeometry>
        </mxCell>
        <mxCell id="Y4brpUqyJMxe7sHr3JE1-157" value="" style="endArrow=oval;html=1;rounded=0;endFill=1;" parent="1" edge="1">
          <mxGeometry width="50" height="50" relative="1" as="geometry">
            <mxPoint x="-3170" y="1085" as="sourcePoint" />
            <mxPoint x="-3170" y="1370" as="targetPoint" />
          </mxGeometry>
        </mxCell>
        <mxCell id="Y4brpUqyJMxe7sHr3JE1-158" value="" style="endArrow=none;html=1;rounded=0;" parent="1" edge="1">
          <mxGeometry width="50" height="50" relative="1" as="geometry">
            <mxPoint x="-3070" y="1010" as="sourcePoint" />
            <mxPoint x="-2960" y="1010" as="targetPoint" />
          </mxGeometry>
        </mxCell>
        <mxCell id="Y4brpUqyJMxe7sHr3JE1-159" value="" style="endArrow=none;html=1;rounded=0;" parent="1" edge="1">
          <mxGeometry width="50" height="50" relative="1" as="geometry">
            <mxPoint x="-2960" y="1270" as="sourcePoint" />
            <mxPoint x="-2960" y="1010" as="targetPoint" />
          </mxGeometry>
        </mxCell>
        <mxCell id="Y4brpUqyJMxe7sHr3JE1-160" value="" style="endArrow=oval;html=1;rounded=0;endFill=1;" parent="1" edge="1">
          <mxGeometry width="50" height="50" relative="1" as="geometry">
            <mxPoint x="-2960" y="1270" as="sourcePoint" />
            <mxPoint x="-3040" y="1270" as="targetPoint" />
          </mxGeometry>
        </mxCell>
        <mxCell id="Y4brpUqyJMxe7sHr3JE1-167" style="edgeStyle=orthogonalEdgeStyle;rounded=0;orthogonalLoop=1;jettySize=auto;html=1;entryX=0.5;entryY=1;entryDx=0;entryDy=0;endArrow=none;endFill=0;" parent="1" source="Y4brpUqyJMxe7sHr3JE1-161" target="Y4brpUqyJMxe7sHr3JE1-164" edge="1">
          <mxGeometry relative="1" as="geometry" />
        </mxCell>
        <mxCell id="Y4brpUqyJMxe7sHr3JE1-182" style="edgeStyle=orthogonalEdgeStyle;rounded=0;orthogonalLoop=1;jettySize=auto;html=1;endArrow=oval;endFill=0;" parent="1" source="Y4brpUqyJMxe7sHr3JE1-161" edge="1">
          <mxGeometry relative="1" as="geometry">
            <mxPoint x="-4320" y="1720" as="targetPoint" />
          </mxGeometry>
        </mxCell>
        <mxCell id="Y4brpUqyJMxe7sHr3JE1-161" value="&lt;font style=&quot;font-size: 17px;&quot;&gt;Punteggio&lt;/font&gt;" style="rounded=0;whiteSpace=wrap;html=1;" parent="1" vertex="1">
          <mxGeometry x="-4274" y="1685" width="140" height="70" as="geometry" />
        </mxCell>
        <mxCell id="Y4brpUqyJMxe7sHr3JE1-164" value="Di" style="rhombus;whiteSpace=wrap;html=1;" parent="1" vertex="1">
          <mxGeometry x="-4224" y="1577" width="40" height="40" as="geometry" />
        </mxCell>
        <mxCell id="Y4brpUqyJMxe7sHr3JE1-168" style="edgeStyle=orthogonalEdgeStyle;rounded=0;orthogonalLoop=1;jettySize=auto;html=1;entryX=0.5;entryY=1;entryDx=0;entryDy=0;endArrow=none;endFill=0;exitX=0.5;exitY=0;exitDx=0;exitDy=0;" parent="1" source="Y4brpUqyJMxe7sHr3JE1-164" edge="1">
          <mxGeometry relative="1" as="geometry">
            <mxPoint x="-4204.26" y="1588" as="sourcePoint" />
            <mxPoint x="-4204.26" y="1520" as="targetPoint" />
          </mxGeometry>
        </mxCell>
        <mxCell id="Y4brpUqyJMxe7sHr3JE1-173" style="edgeStyle=orthogonalEdgeStyle;rounded=0;orthogonalLoop=1;jettySize=auto;html=1;endArrow=oval;endFill=0;" parent="1" edge="1">
          <mxGeometry relative="1" as="geometry">
            <mxPoint x="-3720" y="1510" as="targetPoint" />
            <mxPoint x="-3770" y="1510" as="sourcePoint" />
          </mxGeometry>
        </mxCell>
        <mxCell id="Y4brpUqyJMxe7sHr3JE1-174" value="&lt;font style=&quot;font-size: 7px;&quot;&gt;Genere&lt;/font&gt;" style="text;html=1;align=center;verticalAlign=middle;resizable=0;points=[];autosize=1;strokeColor=none;fillColor=none;" parent="1" vertex="1">
          <mxGeometry x="-3723" y="1492.37" width="50" height="30" as="geometry" />
        </mxCell>
        <mxCell id="Y4brpUqyJMxe7sHr3JE1-176" value="" style="endArrow=none;html=1;rounded=0;" parent="1" edge="1">
          <mxGeometry width="50" height="50" relative="1" as="geometry">
            <mxPoint x="-3960" y="1485" as="sourcePoint" />
            <mxPoint x="-3960" y="1410" as="targetPoint" />
          </mxGeometry>
        </mxCell>
        <mxCell id="Y4brpUqyJMxe7sHr3JE1-177" value="" style="endArrow=oval;html=1;rounded=0;endFill=1;" parent="1" edge="1">
          <mxGeometry width="50" height="50" relative="1" as="geometry">
            <mxPoint x="-3960" y="1410" as="sourcePoint" />
            <mxPoint x="-4156" y="1410" as="targetPoint" />
          </mxGeometry>
        </mxCell>
        <mxCell id="Y4brpUqyJMxe7sHr3JE1-179" value="(0,n)" style="text;html=1;align=center;verticalAlign=middle;resizable=0;points=[];autosize=1;strokeColor=none;fillColor=none;" parent="1" vertex="1">
          <mxGeometry x="-3604" y="1451" width="50" height="30" as="geometry" />
        </mxCell>
        <mxCell id="Y4brpUqyJMxe7sHr3JE1-180" value="(0,n)" style="text;html=1;align=center;verticalAlign=middle;resizable=0;points=[];autosize=1;strokeColor=none;fillColor=none;" parent="1" vertex="1">
          <mxGeometry x="-3604" y="1494.37" width="50" height="30" as="geometry" />
        </mxCell>
        <mxCell id="Y4brpUqyJMxe7sHr3JE1-183" value="&lt;font style=&quot;font-size: 7px;&quot;&gt;Voto brano&lt;br&gt;&lt;/font&gt;" style="text;html=1;align=center;verticalAlign=middle;resizable=0;points=[];autosize=1;strokeColor=none;fillColor=none;" parent="1" vertex="1">
          <mxGeometry x="-4376" y="1703" width="60" height="30" as="geometry" />
        </mxCell>
        <mxCell id="Y4brpUqyJMxe7sHr3JE1-184" value="" style="endArrow=none;html=1;rounded=0;" parent="1" edge="1">
          <mxGeometry width="50" height="50" relative="1" as="geometry">
            <mxPoint x="-4300" y="1550" as="sourcePoint" />
            <mxPoint x="-4204" y="1550" as="targetPoint" />
          </mxGeometry>
        </mxCell>
        <mxCell id="Y4brpUqyJMxe7sHr3JE1-185" value="" style="endArrow=oval;html=1;rounded=0;endFill=1;" parent="1" edge="1">
          <mxGeometry width="50" height="50" relative="1" as="geometry">
            <mxPoint x="-4300" y="1550" as="sourcePoint" />
            <mxPoint x="-4300" y="1740" as="targetPoint" />
          </mxGeometry>
        </mxCell>
        <mxCell id="Y4brpUqyJMxe7sHr3JE1-186" value="(1,1)" style="text;html=1;align=center;verticalAlign=middle;resizable=0;points=[];autosize=1;strokeColor=none;fillColor=none;" parent="1" vertex="1">
          <mxGeometry x="-4210" y="1655" width="50" height="30" as="geometry" />
        </mxCell>
        <mxCell id="Y4brpUqyJMxe7sHr3JE1-187" value="(0,n)" style="text;html=1;align=center;verticalAlign=middle;resizable=0;points=[];autosize=1;strokeColor=none;fillColor=none;" parent="1" vertex="1">
          <mxGeometry x="-4210" y="1519" width="50" height="30" as="geometry" />
        </mxCell>
        <mxCell id="Y4brpUqyJMxe7sHr3JE1-191" style="edgeStyle=orthogonalEdgeStyle;rounded=0;orthogonalLoop=1;jettySize=auto;html=1;entryX=1;entryY=0.5;entryDx=0;entryDy=0;endArrow=none;endFill=0;" parent="1" source="Y4brpUqyJMxe7sHr3JE1-190" target="Y4brpUqyJMxe7sHr3JE1-28" edge="1">
          <mxGeometry relative="1" as="geometry">
            <Array as="points">
              <mxPoint x="-3300" y="1200" />
            </Array>
          </mxGeometry>
        </mxCell>
        <mxCell id="Y4brpUqyJMxe7sHr3JE1-193" style="edgeStyle=orthogonalEdgeStyle;rounded=0;orthogonalLoop=1;jettySize=auto;html=1;entryX=0.5;entryY=0;entryDx=0;entryDy=0;endArrow=none;endFill=0;" parent="1" source="Y4brpUqyJMxe7sHr3JE1-190" target="Y4brpUqyJMxe7sHr3JE1-192" edge="1">
          <mxGeometry relative="1" as="geometry" />
        </mxCell>
        <mxCell id="Y4brpUqyJMxe7sHr3JE1-190" value="Crea" style="rhombus;whiteSpace=wrap;html=1;" parent="1" vertex="1">
          <mxGeometry x="-2866" y="1163" width="80" height="80" as="geometry" />
        </mxCell>
        <mxCell id="Y4brpUqyJMxe7sHr3JE1-194" style="edgeStyle=orthogonalEdgeStyle;rounded=0;orthogonalLoop=1;jettySize=auto;html=1;exitX=0.25;exitY=0;exitDx=0;exitDy=0;endArrow=oval;endFill=0;" parent="1" source="Y4brpUqyJMxe7sHr3JE1-192" edge="1">
          <mxGeometry relative="1" as="geometry">
            <mxPoint x="-2861" y="1260" as="targetPoint" />
          </mxGeometry>
        </mxCell>
        <mxCell id="Y4brpUqyJMxe7sHr3JE1-199" style="edgeStyle=orthogonalEdgeStyle;rounded=0;orthogonalLoop=1;jettySize=auto;html=1;endArrow=oval;endFill=0;" parent="1" source="Y4brpUqyJMxe7sHr3JE1-192" edge="1">
          <mxGeometry relative="1" as="geometry">
            <mxPoint x="-2710" y="1336" as="targetPoint" />
          </mxGeometry>
        </mxCell>
        <mxCell id="Y4brpUqyJMxe7sHr3JE1-192" value="&lt;font style=&quot;font-size: 17px;&quot;&gt;Lista&lt;/font&gt;" style="rounded=0;whiteSpace=wrap;html=1;" parent="1" vertex="1">
          <mxGeometry x="-2896" y="1301" width="140" height="70" as="geometry" />
        </mxCell>
        <mxCell id="Y4brpUqyJMxe7sHr3JE1-195" value="&lt;font style=&quot;font-size: 7px;&quot;&gt;Nome&lt;/font&gt;" style="text;html=1;align=center;verticalAlign=middle;resizable=0;points=[];autosize=1;strokeColor=none;fillColor=none;" parent="1" vertex="1">
          <mxGeometry x="-2883" y="1230" width="40" height="30" as="geometry" />
        </mxCell>
        <mxCell id="Y4brpUqyJMxe7sHr3JE1-196" style="edgeStyle=orthogonalEdgeStyle;rounded=0;orthogonalLoop=1;jettySize=auto;html=1;exitX=0.25;exitY=0;exitDx=0;exitDy=0;endArrow=oval;endFill=1;" parent="1" edge="1">
          <mxGeometry relative="1" as="geometry">
            <mxPoint x="-2786.33" y="1260" as="targetPoint" />
            <mxPoint x="-2786.33" y="1301" as="sourcePoint" />
          </mxGeometry>
        </mxCell>
        <mxCell id="Y4brpUqyJMxe7sHr3JE1-197" value="&lt;font style=&quot;font-size: 7px;&quot;&gt;ID&lt;/font&gt;" style="text;html=1;align=center;verticalAlign=middle;resizable=0;points=[];autosize=1;strokeColor=none;fillColor=none;" parent="1" vertex="1">
          <mxGeometry x="-2802" y="1230" width="30" height="30" as="geometry" />
        </mxCell>
        <mxCell id="Y4brpUqyJMxe7sHr3JE1-200" value="&lt;font style=&quot;font-size: 7px;&quot;&gt;Brani (1,n)&lt;br&gt;&lt;/font&gt;" style="text;html=1;align=center;verticalAlign=middle;resizable=0;points=[];autosize=1;strokeColor=none;fillColor=none;" parent="1" vertex="1">
          <mxGeometry x="-2717" y="1318" width="60" height="30" as="geometry" />
        </mxCell>
        <mxCell id="Y4brpUqyJMxe7sHr3JE1-201" style="edgeStyle=orthogonalEdgeStyle;rounded=0;orthogonalLoop=1;jettySize=auto;html=1;endArrow=oval;endFill=0;" parent="1" edge="1">
          <mxGeometry relative="1" as="geometry">
            <mxPoint x="-2710" y="1359" as="targetPoint" />
            <mxPoint x="-2756" y="1359" as="sourcePoint" />
          </mxGeometry>
        </mxCell>
        <mxCell id="Y4brpUqyJMxe7sHr3JE1-202" value="&lt;font style=&quot;font-size: 7px;&quot;&gt;Artisti (1,n)&lt;br&gt;&lt;/font&gt;" style="text;html=1;align=center;verticalAlign=middle;resizable=0;points=[];autosize=1;strokeColor=none;fillColor=none;" parent="1" vertex="1">
          <mxGeometry x="-2716" y="1341" width="60" height="30" as="geometry" />
        </mxCell>
        <mxCell id="Y4brpUqyJMxe7sHr3JE1-203" value="(0,n)" style="text;html=1;align=center;verticalAlign=middle;resizable=0;points=[];autosize=1;strokeColor=none;fillColor=none;" parent="1" vertex="1">
          <mxGeometry x="-3176" y="1477" width="50" height="30" as="geometry" />
        </mxCell>
        <mxCell id="Y4brpUqyJMxe7sHr3JE1-204" value="(1,n)" style="text;html=1;align=center;verticalAlign=middle;resizable=0;points=[];autosize=1;strokeColor=none;fillColor=none;" parent="1" vertex="1">
          <mxGeometry x="-3113" y="1366" width="50" height="30" as="geometry" />
        </mxCell>
        <mxCell id="Y4brpUqyJMxe7sHr3JE1-205" value="(1,1)" style="text;html=1;align=center;verticalAlign=middle;resizable=0;points=[];autosize=1;strokeColor=none;fillColor=none;" parent="1" vertex="1">
          <mxGeometry x="-3113" y="1270" width="50" height="30" as="geometry" />
        </mxCell>
        <mxCell id="Y4brpUqyJMxe7sHr3JE1-206" value="(1,1)" style="text;html=1;align=center;verticalAlign=middle;resizable=0;points=[];autosize=1;strokeColor=none;fillColor=none;" parent="1" vertex="1">
          <mxGeometry x="-3146" y="1080" width="50" height="30" as="geometry" />
        </mxCell>
        <mxCell id="Y4brpUqyJMxe7sHr3JE1-207" value="(1,1)" style="text;html=1;align=center;verticalAlign=middle;resizable=0;points=[];autosize=1;strokeColor=none;fillColor=none;" parent="1" vertex="1">
          <mxGeometry x="-3126" y="1030" width="50" height="30" as="geometry" />
        </mxCell>
        <mxCell id="Y4brpUqyJMxe7sHr3JE1-208" value="(1,1)" style="text;html=1;align=center;verticalAlign=middle;resizable=0;points=[];autosize=1;strokeColor=none;fillColor=none;" parent="1" vertex="1">
          <mxGeometry x="-3750" y="872" width="50" height="30" as="geometry" />
        </mxCell>
        <mxCell id="Y4brpUqyJMxe7sHr3JE1-209" value="(1,1)" style="text;html=1;align=center;verticalAlign=middle;resizable=0;points=[];autosize=1;strokeColor=none;fillColor=none;" parent="1" vertex="1">
          <mxGeometry x="-3848" y="1420" width="50" height="30" as="geometry" />
        </mxCell>
        <mxCell id="Y4brpUqyJMxe7sHr3JE1-210" value="(0,n)" style="text;html=1;align=center;verticalAlign=middle;resizable=0;points=[];autosize=1;strokeColor=none;fillColor=none;" parent="1" vertex="1">
          <mxGeometry x="-3305" y="1198" width="50" height="30" as="geometry" />
        </mxCell>
        <mxCell id="Y4brpUqyJMxe7sHr3JE1-211" value="(1,1 )" style="text;html=1;align=center;verticalAlign=middle;resizable=0;points=[];autosize=1;strokeColor=none;fillColor=none;" parent="1" vertex="1">
          <mxGeometry x="-2833" y="1272" width="50" height="30" as="geometry" />
        </mxCell>
        <mxCell id="Y4brpUqyJMxe7sHr3JE1-212" value="" style="endArrow=none;html=1;rounded=0;" parent="1" edge="1">
          <mxGeometry width="50" height="50" relative="1" as="geometry">
            <mxPoint x="-3370" y="1040" as="sourcePoint" />
            <mxPoint x="-3330" y="1040" as="targetPoint" />
          </mxGeometry>
        </mxCell>
        <mxCell id="Y4brpUqyJMxe7sHr3JE1-213" value="" style="endArrow=none;html=1;rounded=0;entryX=0.785;entryY=0.996;entryDx=0;entryDy=0;entryPerimeter=0;" parent="1" target="Y4brpUqyJMxe7sHr3JE1-76" edge="1">
          <mxGeometry width="50" height="50" relative="1" as="geometry">
            <mxPoint x="-3330" y="1040" as="sourcePoint" />
            <mxPoint x="-3280" y="990" as="targetPoint" />
          </mxGeometry>
        </mxCell>
        <mxCell id="Y4brpUqyJMxe7sHr3JE1-215" value="" style="endArrow=none;html=1;rounded=0;" parent="1" edge="1">
          <mxGeometry width="50" height="50" relative="1" as="geometry">
            <mxPoint x="-3534" y="927" as="sourcePoint" />
            <mxPoint x="-3350" y="927" as="targetPoint" />
          </mxGeometry>
        </mxCell>
        <mxCell id="Y4brpUqyJMxe7sHr3JE1-217" value="" style="endArrow=none;html=1;rounded=0;" parent="1" edge="1">
          <mxGeometry width="50" height="50" relative="1" as="geometry">
            <mxPoint x="-3534" y="927" as="sourcePoint" />
            <mxPoint x="-3534" y="877" as="targetPoint" />
          </mxGeometry>
        </mxCell>
        <mxCell id="Y4brpUqyJMxe7sHr3JE1-220" value="" style="endArrow=oval;html=1;rounded=0;endFill=1;" parent="1" edge="1">
          <mxGeometry width="50" height="50" relative="1" as="geometry">
            <mxPoint x="-3358" y="922" as="sourcePoint" />
            <mxPoint x="-3322" y="922" as="targetPoint" />
          </mxGeometry>
        </mxCell>
        <mxCell id="Y4brpUqyJMxe7sHr3JE1-222" value="" style="endArrow=none;html=1;rounded=0;" parent="1" edge="1">
          <mxGeometry width="50" height="50" relative="1" as="geometry">
            <mxPoint x="-3183" y="927" as="sourcePoint" />
            <mxPoint x="-3183" y="877" as="targetPoint" />
          </mxGeometry>
        </mxCell>
        <mxCell id="Y4brpUqyJMxe7sHr3JE1-226" value="" style="endArrow=none;html=1;rounded=0;" parent="1" edge="1">
          <mxGeometry width="50" height="50" relative="1" as="geometry">
            <mxPoint x="-3310" y="927" as="sourcePoint" />
            <mxPoint x="-3183" y="927" as="targetPoint" />
          </mxGeometry>
        </mxCell>
        <mxCell id="Y4brpUqyJMxe7sHr3JE1-229" value="" style="endArrow=oval;html=1;rounded=0;endFill=1;" parent="1" edge="1">
          <mxGeometry width="50" height="50" relative="1" as="geometry">
            <mxPoint x="-3298" y="916" as="sourcePoint" />
            <mxPoint x="-3338" y="916" as="targetPoint" />
          </mxGeometry>
        </mxCell>
      </root>
    </mxGraphModel>
  </diagram>
</mxfile>
